<svg width="99" height="50" viewBox="0 0 99 50" fill="none" xmlns="http://www.w3.org/2000/svg">
<rect width="99" height="50" rx="5.07693" fill="#9DBBFF"/>
<path d="M15.9867 25.2334C15.064 25.2334 14.2081 25.0889 13.4188 24.7999C12.6406 24.4998 11.9625 24.0773 11.3845 23.5326C10.8175 22.9879 10.3729 22.3487 10.0505 21.615C9.72813 20.8702 9.56694 20.0532 9.56694 19.1639C9.56694 18.2745 9.72813 17.463 10.0505 16.7293C10.3729 15.9845 10.8175 15.3398 11.3845 14.7951C11.9625 14.2504 12.6406 13.8335 13.4188 13.5445C14.2081 13.2443 15.064 13.0943 15.9867 13.0943C17.065 13.0943 18.0266 13.2832 18.8714 13.6612C19.7274 14.0392 20.4388 14.5839 21.0058 15.2953L18.9048 17.1962C18.5268 16.7516 18.1099 16.4125 17.6542 16.1791C17.2095 15.9456 16.7093 15.8289 16.1534 15.8289C15.6754 15.8289 15.2363 15.9067 14.8361 16.0624C14.436 16.218 14.0913 16.4459 13.8023 16.746C13.5244 17.0351 13.3021 17.3852 13.1353 17.7965C12.9797 18.2078 12.9019 18.6636 12.9019 19.1639C12.9019 19.6641 12.9797 20.1199 13.1353 20.5312C13.3021 20.9425 13.5244 21.2982 13.8023 21.5984C14.0913 21.8874 14.436 22.1097 14.8361 22.2653C15.2363 22.421 15.6754 22.4988 16.1534 22.4988C16.7093 22.4988 17.2095 22.3821 17.6542 22.1486C18.1099 21.9152 18.5268 21.5761 18.9048 21.1315L21.0058 23.0324C20.4388 23.7327 19.7274 24.2774 18.8714 24.6665C18.0266 25.0445 17.065 25.2334 15.9867 25.2334ZM20.8818 25L26.0342 13.3277H29.2858L34.455 25H31.02L26.9847 14.9452H28.2853L24.2501 25H20.8818ZM23.6998 22.7322L24.5502 20.2977H30.2529L31.1034 22.7322H23.6998ZM35.391 25V13.3277H40.7269C41.7941 13.3277 42.7112 13.5 43.4782 13.8446C44.2563 14.1892 44.8566 14.6895 45.2791 15.3453C45.7015 15.9901 45.9127 16.7571 45.9127 17.6465C45.9127 18.5247 45.7015 19.2861 45.2791 19.9309C44.8566 20.5645 44.2563 21.0537 43.4782 21.3983C42.7112 21.7318 41.7941 21.8985 40.7269 21.8985H37.2252L38.6926 20.5145V25H35.391ZM42.6111 25L39.7097 20.748H43.2281L46.1461 25H42.6111ZM38.6926 20.8647L37.2252 19.3473H40.5268C41.216 19.3473 41.7274 19.1972 42.0608 18.8971C42.4055 18.5969 42.5778 18.18 42.5778 17.6465C42.5778 17.1018 42.4055 16.6793 42.0608 16.3792C41.7274 16.079 41.216 15.929 40.5268 15.929H37.2252L38.6926 14.4116V20.8647ZM47.7342 25V13.3277H53.2535C54.543 13.3277 55.6769 13.5667 56.6551 14.0447C57.6334 14.5227 58.3948 15.1953 58.9395 16.0624C59.4954 16.9294 59.7733 17.9633 59.7733 19.1639C59.7733 20.3533 59.4954 21.3871 58.9395 22.2653C58.3948 23.1324 57.6334 23.805 56.6551 24.283C55.6769 24.761 54.543 25 53.2535 25H47.7342ZM51.0357 22.3654H53.1201C53.7871 22.3654 54.3651 22.2431 54.8542 21.9986C55.3545 21.7429 55.7436 21.376 56.0215 20.898C56.2994 20.4089 56.4383 19.8308 56.4383 19.1639C56.4383 18.4858 56.2994 17.9077 56.0215 17.4297C55.7436 16.9517 55.3545 16.5904 54.8542 16.3458C54.3651 16.0902 53.7871 15.9623 53.1201 15.9623H51.0357V22.3654ZM61.5103 25V13.3277H64.8119V25H61.5103ZM70.7133 25L65.7276 13.3277H69.296L73.498 23.4326H71.397L75.6991 13.3277H78.9673L73.9649 25H70.7133ZM82.6854 17.8466H88.1046V20.3144H82.6854V17.8466ZM82.9188 22.4488H89.0217V25H79.6506V13.3277H88.805V15.8789H82.9188V22.4488Z" fill="#090E15"/>
<rect y="33" width="99" height="5" fill="#090E15"/>
</svg>
